<svg width="36" height="36" viewBox="0 0 36 36" fill="none" xmlns="http://www.w3.org/2000/svg">
<path d="M34.2448 28.5645L20.2256 4.74218C19.7479 3.93912 18.9171 3.46143 17.9963 3.46143C17.0825 3.46143 16.2448 3.93912 15.774 4.74218L1.7548 28.5645C1.26324 29.3952 1.25631 30.3922 1.73401 31.2299C2.20477 32.0468 3.04248 32.5383 3.97708 32.5383H32.0225C32.9571 32.5383 33.7948 32.0468 34.2586 31.2299C34.7432 30.3922 34.7363 29.3952 34.2448 28.5645ZM16.5707 13.7459H18.9113V15.9522L18.4096 22.1269H17.0723L16.5707 15.9522V13.7459V13.7459ZM18.627 25.7527C18.3819 26.0036 18.0891 26.1293 17.7494 26.1293C17.4093 26.1293 17.1166 26.0036 16.8715 25.7527C16.6261 25.5019 16.5037 25.2031 16.5037 24.8549C16.5037 24.5074 16.6261 24.2079 16.8715 23.9571C17.1166 23.7062 17.4093 23.5805 17.7494 23.5805C18.0891 23.5805 18.3819 23.7062 18.627 23.9571C18.872 24.2079 18.9948 24.5074 18.9948 24.8549C18.9948 25.2031 18.872 25.5019 18.627 25.7527Z" fill="#FBFBFB"/>
</svg>
