<svg width="36" height="36" viewBox="0 0 36 36" fill="none" xmlns="http://www.w3.org/2000/svg">
<path d="M18 0C8.0595 0 0 8.0595 0 18C0 27.942 8.0595 36 18 36C27.9405 36 36 27.942 36 18C36 8.0595 27.9405 0 18 0ZM29.631 14.3415L16.7205 27.252C16.4565 27.5175 16.0275 27.5175 15.765 27.252L13.857 25.3245C13.5945 25.0605 13.164 24.6285 12.903 24.3615L8.463 19.6935C8.3325 19.563 8.2635 19.3785 8.2635 19.203C8.2635 19.0305 8.3325 18.8625 8.463 18.732L10.4085 16.9785C10.5405 16.8435 10.716 16.7775 10.89 16.7775C11.061 16.779 11.232 16.8465 11.3625 16.9785L15.7665 21.471C16.029 21.738 16.458 21.738 16.722 21.471L26.7705 11.4495C27.0345 11.184 27.462 11.184 27.7245 11.4495L29.6325 13.377C29.895 13.641 29.895 14.076 29.631 14.3415Z" fill="#FBFBFB"/>
</svg>
